<?xml version="1.0" encoding="UTF-8"?>
<svg width="330px" height="50px" viewBox="0 0 330 50" version="1.1" xmlns="http://www.w3.org/2000/svg" xmlns:xlink="http://www.w3.org/1999/xlink">
    <title>Continue-Chevron (1)</title>
    <g id="Page-1" stroke="none" stroke-width="1" fill="none" fill-rule="evenodd">
        <g id="Continue-Chevron-(1)" fill-rule="nonzero">
            <g id="Group-3" fill="#023B88">
                <rect id="Rectangle" x="0" y="0" width="330" height="50" rx="5"></rect>
            </g>
            <g id="Group-2" transform="translate(115.016334, 17.384956)" fill="#FFFFFF">
                <g id="Continue">
                    <path d="M11.2947335,4.78124544 C10.8472908,1.9815322 8.65482129,0.345170125 5.88706825,0.345170125 C2.49928739,0.345170125 0,2.88280975 0,7.06959553 C0,11.2563813 2.48650331,13.7940209 5.88706825,13.7940209 C8.76348596,13.7940209 10.8664669,11.9914658 11.2947335,9.4026899 L9.30041727,9.39629786 C8.96163918,11.0710122 7.55539052,11.9914658 5.89985233,11.9914658 C3.65624651,11.9914658 1.96235608,10.2720072 1.96235608,7.06959553 C1.96235608,3.89275197 3.64985447,2.14772522 5.90624437,2.14772522 C7.57456664,2.14772522 8.97442326,3.08735501 9.30041727,4.78124544 L11.2947335,4.78124544 Z" id="Path"></path>
                    <path d="M17.6420413,13.8131971 C20.4097943,13.8131971 22.2187414,11.7869206 22.2187414,8.75070188 C22.2187414,5.69530707 20.4097943,3.66903059 17.6420413,3.66903059 C14.8742882,3.66903059 13.0653411,5.69530707 13.0653411,8.75070188 C13.0653411,11.7869206 14.8742882,13.8131971 17.6420413,13.8131971 Z M17.6484333,12.2087952 C15.8394862,12.2087952 14.995737,10.6299615 14.995737,8.74430984 C14.995737,6.86505027 15.8394862,5.26704043 17.6484333,5.26704043 C19.4445964,5.26704043 20.2883455,6.86505027 20.2883455,8.74430984 C20.2883455,10.6299615 19.4445964,12.2087952 17.6484333,12.2087952 Z" id="Shape"></path>
                    <path d="M26.2585206,7.78550394 C26.2585206,6.2194543 27.2173266,5.32456879 28.5468707,5.32456879 C29.8444547,5.32456879 30.6306756,6.17471002 30.6306756,7.6001348 L30.6306756,13.6150438 L32.5418953,13.6150438 L32.5418953,7.37002138 C32.5418953,4.94104642 31.2059591,3.66903059 29.1988588,3.66903059 C27.7222977,3.66903059 26.7570997,4.3529788 26.3032649,5.39488122 L26.1818162,5.39488122 L26.1818162,3.79687138 L24.3473009,3.79687138 L24.3473009,13.6150438 L26.2585206,13.6150438 L26.2585206,7.78550394 Z" id="Path"></path>
                    <path d="M39.6818136,3.79687138 L37.6683212,3.79687138 L37.6683212,1.4446009 L35.7571014,1.4446009 L35.7571014,3.79687138 L34.3188925,3.79687138 L34.3188925,5.33096083 L35.7571014,5.33096083 L35.7571014,11.1285405 C35.7507093,12.9119195 37.1122137,13.7748448 38.620735,13.7428846 C39.2279788,13.7364926 39.6370693,13.6214359 39.8607907,13.5383394 L39.5156205,11.9595056 C39.3877797,11.9850738 39.1512743,12.0426022 38.8444564,12.0426022 C38.2244286,12.0426022 37.6683212,11.8380569 37.6683212,10.7322341 L37.6683212,5.33096083 L39.6818136,5.33096083 L39.6818136,3.79687138 Z" id="Path"></path>
                    <path d="M41.7911929,13.6150438 L43.7024127,13.6150438 L43.7024127,3.79687138 L41.7911929,3.79687138 L41.7911929,13.6150438 Z M42.7563909,2.28195805 C43.4147709,2.28195805 43.9644863,1.7705949 43.9644863,1.14417505 C43.9644863,0.517755188 43.4147709,0 42.7563909,0 C42.0916188,0 41.5482954,0.517755188 41.5482954,1.14417505 C41.5482954,1.7705949 42.0916188,2.28195805 42.7563909,2.28195805 Z" id="Shape"></path>
                    <path d="M48.1832366,7.78550394 C48.1832366,6.2194543 49.1420425,5.32456879 50.4715866,5.32456879 C51.7691706,5.32456879 52.5553915,6.17471002 52.5553915,7.6001348 L52.5553915,13.6150438 L54.4666112,13.6150438 L54.4666112,7.37002138 C54.4666112,4.94104642 53.130675,3.66903059 51.1235747,3.66903059 C49.6470136,3.66903059 48.6818156,4.3529788 48.2279808,5.39488122 L48.1065321,5.39488122 L48.1065321,3.79687138 L46.2720168,3.79687138 L46.2720168,13.6150438 L48.1832366,13.6150438 L48.1832366,7.78550394 Z" id="Path"></path>
                    <path d="M63.2428915,9.54331476 C63.2492836,11.211637 62.0092279,12.0042499 60.9353653,12.0042499 C59.7528381,12.0042499 58.934657,11.1477166 58.934657,9.81178042 L58.934657,3.79687138 L57.0234372,3.79687138 L57.0234372,10.0418938 C57.0234372,12.4772608 58.3593735,13.7428846 60.2450251,13.7428846 C61.7215862,13.7428846 62.7251364,12.9630558 63.1789711,11.9147614 L63.2812438,11.9147614 L63.2812438,13.6150438 L65.1605033,13.6150438 L65.1605033,3.79687138 L63.2428915,3.79687138 L63.2428915,9.54331476 Z" id="Path"></path>
                    <path d="M71.9552514,13.8131971 C74.0965846,13.8131971 75.6114979,12.7585106 76.0461566,11.1605007 L74.2372094,10.8345067 C73.8920393,11.7613524 73.0610742,12.2343633 71.9744275,12.2343633 C70.3380654,12.2343633 69.2386347,11.1732848 69.1874983,9.28124115 L76.1676053,9.28124115 L76.1676053,8.60368498 C76.1676053,5.05610313 74.0454483,3.66903059 71.8210186,3.66903059 C69.0852257,3.66903059 67.2826706,5.75283542 67.2826706,8.769878 C67.2826706,11.8188808 69.0596576,13.8131971 71.9552514,13.8131971 Z M69.1938904,7.84942433 C69.2705949,6.45595975 70.2805371,5.24786431 71.8338026,5.24786431 C73.3167558,5.24786431 74.2883458,6.34729508 74.2947378,7.84942433 L69.1938904,7.84942433 Z" id="Shape"></path>
                </g>
                <g id="chevron-right" transform="translate(92.000000, 0.000000)">
                    <path d="M8.06188239,7.35352098 C8.35475889,7.06061396 8.35475889,6.58576158 8.06185187,6.29288508 L1.98865468,0.219657374 C1.69577819,-0.0732191247 1.2209258,-0.0732191247 0.928018785,0.219657374 L0.219676968,0.927999191 C-0.0727417684,1.22041793 -0.0732910835,1.69432427 0.21842575,1.98741439 L5.03155514,6.82318777 L0.21842575,11.6589917 C-0.0732910835,11.9520818 -0.0727417684,12.4259881 0.219676968,12.7184069 L0.928018785,13.4267487 C1.22089528,13.7196252 1.69574767,13.7196252 1.98865468,13.4267487 L8.06188239,7.35352098 Z" id="Path"></path>
                </g>
            </g>
        </g>
    </g>
</svg>