<?xml version="1.0" encoding="UTF-8"?>
<svg width="392px" height="393px" viewBox="0 0 392 393" version="1.1" xmlns="http://www.w3.org/2000/svg" xmlns:xlink="http://www.w3.org/1999/xlink">
    <title>AD742EAA-BD67-432B-8977-3477B4EB03C2</title>
    <defs>
        <linearGradient x1="0.0464037123%" y1="50.1156872%" x2="100.278422%" y2="50.1156872%" id="linearGradient-1">
            <stop stop-color="#2860AD" offset="0%"></stop>
            <stop stop-color="#023B88" offset="100%"></stop>
        </linearGradient>
        <linearGradient x1="50%" y1="0%" x2="50%" y2="100%" id="linearGradient-2">
            <stop stop-color="#2860AD" offset="0%"></stop>
            <stop stop-color="#023B88" offset="100%"></stop>
        </linearGradient>
        <linearGradient x1="50.0232849%" y1="99.9763376%" x2="50.0232849%" y2="0.00706825588%" id="linearGradient-3">
            <stop stop-color="#2860AD" offset="0%"></stop>
            <stop stop-color="#023B88" offset="100%"></stop>
        </linearGradient>
    </defs>
    <g id="WhatsApp-Intergration" stroke="none" stroke-width="1" fill="none" fill-rule="evenodd">
        <g id="Not-Found-Web" transform="translate(-524.000000, -190.000000)">
            <g id="404-copy-2" transform="translate(524.000000, 190.000000)">
                <path d="M7.04808458,214.497043 C7.04808458,214.497043 1.74545966,216.846611 8.20466451,228.237551 C11.4240727,234.135961 15.0258331,239.812438 18.9863418,245.229781 C18.9863418,245.229781 20.1625248,247.886676 17.9375786,248.431934 C15.7126325,248.977193 10.7138549,248.431934 9.85132068,251.267277 C8.98878649,254.10262 11.164725,256.858653 15.496999,259.039686 C19.8292729,261.220719 29.1211185,266.365974 29.9640496,266.831922 C30.8069807,267.29787 31.6499119,268.517266 30.1894847,269.131921 C28.7290575,269.746575 17.6435329,271.501316 18.7805098,276.805191 C19.9174867,282.109067 32.9535147,286.17372 34.3649342,286.639667 C35.7763538,287.105615 36.1488117,287.700443 36.0703995,288.483632 C35.9919873,289.266821 32.2184003,289.47501 29.0819124,290.12932 C25.9454244,290.78363 22.426677,292.042681 23.3382188,295.086214 C24.2497606,298.129746 32.1595911,304.078018 50.6452669,305 L59.2412042,304.841379 L63.6322873,297.148281 C71.8655682,280.294844 70.4933547,270.381058 68.4056299,268.090973 C66.3179051,265.800888 63.4460583,268.328904 61.3779366,270.807351 C59.3098149,273.285797 57.2808992,276.527605 56.5751895,276.210364 C55.8694797,275.893123 55.5362278,275.298296 55.820472,273.811228 C56.1047163,272.32416 58.9373569,258.7621 54.9285333,255.173309 C50.9197096,251.584519 44.0292377,260.546582 42.7452379,261.587529 C41.4612382,262.628477 40.8731467,261.220719 40.8829482,260.268996 C40.8927498,259.317272 40.990765,248.531072 41.2162001,243.623748 C41.4416351,238.716424 40.2360476,235.474616 37.2955901,234.830219 C34.3551327,234.185823 32.4634384,238.9147 30.924599,240.639698 C29.3857596,242.364697 27.6606913,240.01513 27.6606913,240.01513 C24.935367,233.865252 21.8116927,227.904023 18.3100366,222.170314 C11.6449997,210.888425 6.95987086,214.576354 6.95987086,214.576354" id="Path" fill="#D1DCEC" fill-rule="nonzero"></path>
                <path d="M102.813838,393 C96.9962601,383.181664 87.0714731,365.571929 78.3800125,350.492934 C69.6885518,335.413939 61.9511739,321.77606 56.2615832,311.934292 L49.478288,300.288199 L47.6282984,297.124774 C47.4305007,296.761565 47.2676086,296.492088 47.151257,296.29291 C47.0349055,296.093731 47,296 47,296 L47.1861625,296.269477 L47.6864741,297.089624 L49.5830044,300.229617 C51.2235612,302.94782 53.5738625,306.90796 56.4477457,311.817128 C62.2653231,321.635463 70.0841471,335.249909 78.717432,350.328904 C87.3507168,365.4079 97.3336796,383.041068 103,392.882836" id="Path" fill="#E0E0E0" fill-rule="nonzero"></path>
                <path d="M52,329 C52.2349042,329.0267 52.4665227,329.071409 52.6920552,329.133588 L54.5338148,329.601145 C56.0853578,330.020992 58.2173342,330.641221 60.561392,331.35687 L66.5331582,333.217557 L68.3414314,333.770992 C68.5690556,333.829053 68.7895993,333.905744 69,334 C68.763488,333.981456 68.5308295,333.936546 68.3079448,333.866412 C67.8614576,333.770992 67.1917269,333.608779 66.455023,333.389313 C64.90348,332.969466 62.793828,332.320611 60.4497702,331.604962 L54.4668418,329.782443 L52.6474064,329.229008 C52.41961,329.180289 52.2014618,329.103123 52,329 L52,329 Z" id="Path" fill="#E0E0E0" fill-rule="nonzero"></path>
                <path d="M72.0027899,334 C71.9384048,334 72.9961597,329.301877 74.37584,323.429475 C75.7555204,317.557074 76.9328476,312.9766 76.9972327,313 C77.0616178,313.02358 75.994665,317.698011 74.6149846,323.570413 C73.2353043,329.442815 72.0671749,334.035033 72.0027899,334 Z" id="Path" fill="#E0E0E0" fill-rule="nonzero"></path>
                <path d="M84,358 C84.1089873,357.761298 84.2486831,357.53557 84.4160757,357.327684 C84.7541371,356.847458 85.1832151,356.259181 85.7163121,355.550847 C86.7695035,354.050141 88.2257683,351.949153 89.7340426,349.620056 C91.2423168,347.29096 92.5425532,345.105932 93.465721,343.533192 C93.8947991,342.788842 94.2588652,342.164548 94.5579196,341.672316 C94.6734872,341.431654 94.8220636,341.205699 95,341 C94.9176641,341.249432 94.8087798,341.490722 94.6749409,341.720339 C94.4539007,342.188559 94.1158392,342.836864 93.6867612,343.641243 C92.8156028,345.25 91.5543735,347.435028 90.0330969,349.788136 C88.5118203,352.141243 87.0295508,354.206215 85.9243499,355.68291 C85.3652482,356.415254 84.8971631,357.003531 84.6241135,357.399718 C84.4375925,357.617979 84.2285753,357.819015 84,358 Z" id="Path" fill="#E0E0E0" fill-rule="nonzero"></path>
                <path d="M67,356.067614 C67.2235066,356.046577 67.4488731,356.046577 67.6723797,356.067614 L69.4990112,356.117614 C71.0342782,356.167614 73.1634806,356.257614 75.5056032,356.377614 C77.8477258,356.497614 79.9881345,356.607614 81.5121951,356.707614 L83.3388266,356.847614 C83.5622343,356.847788 83.784607,356.874694 84,356.927614 C83.7769251,356.955014 83.5506952,356.955014 83.3276203,356.927614 L81.5009888,356.927614 C79.9657218,356.867614 77.8365194,356.787614 75.4943968,356.667614 C73.1522742,356.547614 71.0118655,356.427614 69.4878049,356.327614 L67.717205,356.157614 C67.4747703,356.155545 67.2336716,356.12529 67,356.067614 L67,356.067614 Z" id="Path" fill="#E0E0E0" fill-rule="nonzero"></path>
                <path d="M74,379.049 C74.2988163,379.021093 74.6003606,379.021093 74.899177,379.049 L77.3719136,379.099 C79.4542181,379.159 82.3292181,379.249 85.5118313,379.369 C88.6944444,379.489 91.5576132,379.619 93.6399177,379.729 L96.100823,379.869 C96.4032631,379.87464 96.7043665,379.904778 97,379.959 C96.7006214,379.976241 96.4002016,379.976241 96.100823,379.959 L93.6635802,379.899 C91.5812757,379.899 88.7062757,379.749 85.5236626,379.629 C82.3410494,379.509 79.4778807,379.379 77.3955761,379.269 L74.9346708,379.139 C74.6203506,379.135312 74.3072473,379.105163 74,379.049 Z" id="Path" fill="#E0E0E0" fill-rule="nonzero"></path>
                <path d="M97,379 C97.1394291,378.71472 97.2969038,378.438173 97.4715128,378.171961 L98.8388998,375.963855 C100.017682,374.100767 101.561886,371.513143 103.223969,368.615005 C104.886051,365.716867 106.324165,363.060241 107.349705,361.116648 L108.528487,358.816539 C108.661598,358.531786 108.81934,358.258618 109,358 C108.907806,358.302313 108.785411,358.595064 108.634578,358.874042 C108.387033,359.426068 107.998035,360.231106 107.455796,361.174151 C106.477407,363.140745 105.098232,365.77437 103.400786,368.71851 C101.70334,371.662651 100.13556,374.192771 98.9332024,376.032859 C98.3320236,376.952903 97.8369352,377.688938 97.4833006,378.194962 C97.3505799,378.478594 97.1886471,378.748327 97,379 Z" id="Path" fill="#E0E0E0" fill-rule="nonzero"></path>
                <path d="M337.966153,27.2934 C338.162762,29.4557339 338.067376,31.6346483 337.682556,33.7716 L342.409173,37.4532 L338.202483,46.4802 L332.294212,45.2176 C330.90827,46.8667571 329.31116,48.3267413 327.543962,49.56 L328.30022,55.519 L318.941518,59 L315.668336,53.9496 C313.502967,54.1457915 311.321017,54.0505393 309.181053,53.6664 L305.494292,58.3864 L296.454636,54.1856 L297.789906,48.38 C296.116371,46.9913737 294.63782,45.3839144 293.394152,43.601 L287.414981,44.3562 L284,35.0106 L289.05748,31.7538 C288.860809,29.5875396 288.956193,27.4047189 289.341078,25.2638 L284.61446,21.5822 L288.82115,12.5552 L294.729421,13.8296 C296.086458,12.168975 297.655677,10.6931974 299.396956,9.44 L298.640697,3.4692 L308.011216,0 L311.272582,5.0504 C313.438096,4.86063886 315.619193,4.95585386 317.759864,5.3336 L321.446625,0.6136 L330.486281,4.8144 L329.221911,10.62 C330.889687,12.0191118 332.367425,13.6296532 333.617665,15.4108 L339.585019,14.6438 L343,24.0012 L337.966153,27.2934 Z M323.703585,26.255 C321.678491,20.7169906 315.542323,17.8655488 309.995498,19.8849316 C304.448674,21.9043144 301.590048,28.0304104 303.609381,33.5705173 C305.628714,39.1106241 311.761913,41.9684287 317.310835,39.9548 C322.85376,37.9234043 325.703286,31.7941512 323.679952,26.255 L323.703585,26.255 Z" id="Shape" fill="#CCD7E7"></path>
                <path d="M388.027273,58.3173562 C388.187253,60.002112 388.112979,61.7008825 387.806566,63.3652876 L391.523737,66.2315843 L388.271212,73.2638749 L383.624747,72.2774975 C382.539757,73.5791945 381.285764,74.7304551 379.89596,75.7008073 L380.488384,80.3425832 L373.193434,83 L370.649495,79.0660949 C368.962761,79.2142833 367.263842,79.1401525 365.596465,78.8456105 L362.715657,82.5474268 L355.74596,79.2749748 L356.733333,74.691221 C355.427695,73.6100842 354.274925,72.3569802 353.306566,70.9661958 L348.660101,71.5696266 L346,64.2820383 L349.937879,61.740666 C349.789594,60.0517701 349.863797,58.3507373 350.158586,56.6811302 L346.45303,53.8148335 L349.740404,46.7825429 L354.317172,47.7805247 C355.398066,46.4581587 356.652261,45.2871962 358.04596,44.2991927 L357.453535,39.6574168 L364.748485,37 L367.292424,40.9455096 C368.978882,40.7856905 370.679368,40.8598897 372.345455,41.1659939 L375.226263,37.4525732 L382.265657,40.7250252 L381.266667,45.308779 C382.572602,46.3896033 383.725412,47.6427503 384.693434,49.0338042 L389.339899,48.4419778 L392,55.7295661 L388.050505,58.2709384 L388.027273,58.3173562 Z M376.922222,57.5050454 C375.760394,54.3425709 372.804356,52.1920242 369.434892,52.0579402 C366.065427,51.9238561 362.947524,53.832697 361.537574,56.8928306 C360.127624,59.9529641 360.703891,63.5604529 362.997196,66.0302149 C365.290502,68.4999769 368.848247,69.3445884 372.008586,68.1695257 C376.270128,66.5667949 378.457241,61.8457452 376.922222,57.5630676 L376.922222,57.5050454 Z" id="Shape" fill-opacity="0.7" fill="#CCD7E7"></path>
                <path d="M337.58363,88.507109 C337.711151,89.9704382 337.647349,91.4441239 337.393832,92.8909953 L340.608541,95.3791469 L337.761566,101.492891 L333.787663,100.627962 C332.843083,101.756503 331.754309,102.756351 330.549229,103.601896 L331.059312,107.630332 L324.724792,110 L322.518387,106.587678 C321.053322,106.715048 319.577888,106.651321 318.1293,106.398104 L315.638197,109.609005 L309.5172,106.765403 L310.383155,102.796209 C309.253275,101.852747 308.252242,100.765264 307.405694,99.5616114 L303.372479,100.07109 L301,93.7440758 L304.487544,91.5402844 C304.348122,90.0772384 304.411993,88.6019611 304.677343,87.1563981 L301.450771,84.6682464 L304.297746,78.507109 L308.283511,79.3720379 C309.225152,78.2406998 310.314322,77.2404888 311.521945,76.3981043 L311,72.3696682 L317.33452,70 L319.540925,73.4241706 C321.005703,73.2847608 322.482751,73.3485575 323.930012,73.6137441 L326.432977,70.3909953 L332.542112,73.2345972 L331.676157,77.3222749 C332.808837,78.2628001 333.810234,79.3506789 334.653618,80.556872 L338.686833,80.035545 L341,86.3625592 L337.58363,88.5663507 L337.58363,88.507109 Z M327.927639,87.8080569 C326.555753,84.0690019 322.410546,82.1469142 318.665665,83.5133801 C314.920785,84.8798461 312.992212,89.0181897 314.356498,92.7600178 C315.720784,96.5018459 319.862078,98.4323319 323.609727,97.0734597 C327.363337,95.7054502 329.296364,91.5575506 327.927639,87.8080569 L327.927639,87.8080569 Z" id="Shape" fill-opacity="0.4" fill="#CCD7E7"></path>
                <g id="Group-2" transform="translate(0.000000, 142.000000)" fill="#CCD7E7" fill-rule="nonzero">
                    <rect id="Rectangle" transform="translate(18.500000, 11.117647) rotate(180.000000) translate(-18.500000, -11.117647) " x="0" y="8.64705882" width="37" height="4.94117647"></rect>
                    <rect id="Rectangle" transform="translate(18.500000, 2.470588) rotate(180.000000) translate(-18.500000, -2.470588) " x="0" y="0" width="37" height="4.94117647"></rect>
                    <rect id="Rectangle" transform="translate(29.344828, 18.529412) rotate(180.000000) translate(-29.344828, -18.529412) " x="21.6896552" y="16.0588235" width="15.3103448" height="4.94117647"></rect>
                </g>
                <path d="M63.0425197,100.303399 C63.8983529,98.6073537 64.976309,97.0329867 66.247919,95.6218771 L64.4697413,90.7062795 L71.7345332,86.024758 L75.4663667,89.6880486 C77.2625258,89.1103417 79.1269397,88.7719202 81.0114736,88.6815215 L83.2224972,84 L91.6220472,85.8257934 L91.6220472,91.0456898 C93.3152738,91.9101251 94.8883857,92.9921263 96.3014623,94.2642359 L101.214848,92.4735539 L105.894263,99.7533198 L102.291114,103.545352 C102.871487,105.322452 103.217567,107.167728 103.320585,109.034436 L108,111.246455 L106.16333,119.696601 L100.934083,119.696601 C100.081542,121.394591 99.003296,122.969381 97.7286839,124.378123 L99.5185602,129.29372 L92.2420697,133.975242 L88.5102362,130.311951 C86.7152959,130.894516 84.8502279,131.233056 82.9651294,131.318479 L80.7541057,136 L72.3077615,134.174207 L72.3077615,128.942606 C70.6061599,128.092312 69.0312251,127.009057 67.6283465,125.72406 L62.7149606,127.514742 L58.0355456,120.24668 L61.6854893,116.513167 C61.1080423,114.716199 60.7697731,112.850946 60.6794151,110.965564 L56,108.753545 L57.8249719,100.291695 L63.0542182,100.291695 L63.0425197,100.303399 Z M73.0213723,107.676795 C71.9359371,112.686265 75.1151686,117.627558 80.1223847,118.713482 C85.1296008,119.799406 90.0686705,116.618743 91.1541057,111.609273 C92.239541,106.599803 89.0603094,101.65851 84.0530934,100.572586 C79.0458773,99.4866623 74.1068076,102.667325 73.0213723,107.676795 Z" id="Shape" fill="#023B88"></path>
                <path d="M50.5470998,61.1813975 C50.9776558,60.3442882 51.5172018,59.5675572 52.1517401,58.8713559 L51.2589327,56.4650625 L54.8784223,54.1309579 L56.7364269,55.911615 C57.6348224,55.6211211 58.5679999,55.4511879 59.5113689,55.4062934 L60.6092807,53 L64.8440835,53.9143915 L64.8440835,56.5252198 C65.6882565,56.9516027 66.4680602,57.4943296 67.1605568,58.1374364 L69.5735499,57.2350764 L71.9141531,60.8445164 L70.0802784,62.7093938 C70.3763528,63.6040881 70.5468789,64.5353286 70.587007,65.4766312 L73,66.5835261 L72.0830626,70.7945396 L69.4649652,70.7945396 C69.0338749,71.6350081 68.4944211,72.415651 67.8603248,73.1166127 L68.7531323,75.5229061 L65.1336427,77.9291994 L63.2635731,76.1004165 C62.3646536,76.3869635 61.4314699,76.5528518 60.4886311,76.5937066 L59.3907193,79 L55.1559165,78.0856085 L55.1559165,75.4747802 C54.3147639,75.0482752 53.5355041,74.5099741 52.8394432,73.8745951 L50.4264501,74.7649236 L48.0858469,71.1554836 L49.9076566,69.3026377 C49.6202328,68.4021089 49.4538935,67.4675313 49.412993,66.5233688 L47,65.4285053 L47.9169374,61.2054604 L50.5350348,61.2054604 L50.5470998,61.1813975 Z M55.5299304,64.8630264 C55.0218354,67.3637192 56.6373136,69.8032863 59.1430581,70.3192855 C61.6488026,70.8352848 64.1011649,69.233394 64.6279346,66.7365468 C65.1547043,64.2396996 63.5575031,61.788194 61.0556845,61.2535863 C59.841996,60.9908961 58.573362,61.2251423 57.5344505,61.9037626 C56.495539,62.5823829 55.7733483,63.6485496 55.5299304,64.8630264 Z" id="Shape" fill="url(#linearGradient-1)"></path>
                <path d="M24.5020882,87.3840814 C25.0485631,86.3215966 25.7333715,85.3357457 26.5387471,84.4521055 L25.4055684,81.3979639 L29.999536,78.4354466 L32.3577726,80.6955113 C33.4980438,80.3268075 34.6824615,80.1111231 35.8798144,80.0541416 L37.2733179,77 L42.6482599,78.1605738 L42.6482599,81.4743174 C43.7197101,82.0154957 44.709461,82.7043415 45.5883991,83.5205923 L48.6510441,82.3752892 L51.6218097,86.9565016 L49.2941995,89.3234614 C49.6699863,90.4590349 49.8864232,91.6409941 49.937355,92.8357242 L53,94.2406293 L51.8361949,99.5853771 L48.5132251,99.5853771 C47.966072,100.652126 47.2813807,101.642942 46.4765661,102.532624 L47.6097448,105.586765 L43.0157773,108.640907 L40.6422274,106.319759 C39.5012911,106.683454 38.3168656,106.894004 37.1201856,106.945858 L35.7266821,110 L30.3517401,108.839426 L30.3517401,105.525683 C29.2841235,104.984349 28.2950628,104.301121 27.4116009,103.494678 L24.3489559,104.624711 L21.3781903,100.043498 L23.6904872,97.6918093 C23.32568,96.5488305 23.1145572,95.3626359 23.062645,94.1642758 L20,92.7746414 L21.1638051,87.4146229 L24.4867749,87.4146229 L24.5020882,87.3840814 Z M31.5379078,91.7324372 C30.9132738,94.8147919 32.8992856,97.8218031 35.9797594,98.4578239 C39.0602333,99.0938448 42.075081,97.1193537 42.722673,94.0417391 C43.3702651,90.9641245 41.4067223,87.9423979 38.3310748,87.2834403 C36.839009,86.9596483 35.2793952,87.2483802 34.002194,88.0848478 C32.7249929,88.9213154 31.8371572,90.2354728 31.5379078,91.7324372 Z" id="Shape-Copy" stroke="#CCD7E7"></path>
                <g id="Group" opacity="0.8" transform="translate(56.000000, 84.000000)" fill="#FFFFFF">
                    <path d="M7.04251969,16.3033986 C7.8983529,14.6073537 8.976309,13.0329867 10.247919,11.6218771 L8.46974128,6.70627954 L15.7345332,2.02475805 L19.4663667,5.68804862 C21.2625258,5.11034169 23.1269397,4.77192024 25.0114736,4.68152149 L27.2224972,0 L35.6220472,1.82579338 L35.6220472,7.04568985 C37.3152738,7.91012506 38.8883857,8.99212632 40.3014623,10.2642359 L45.2148481,8.47355391 L49.8942632,15.7533198 L46.2911136,19.5453522 C46.8714874,21.3224521 47.2175668,23.1677282 47.3205849,25.0344362 L52,27.2464551 L50.1633296,35.6966014 L44.9340832,35.6966014 C44.0815415,37.3945915 43.003296,38.9693812 41.7286839,40.3781229 L43.5185602,45.2937205 L36.2420697,49.975242 L32.5102362,46.3119514 C30.7152959,46.8945158 28.8502279,47.233056 26.9651294,47.3184785 L24.7541057,52 L16.3077615,50.1742066 L16.3077615,44.9426063 C14.6061599,44.0923118 13.0312251,43.0090567 11.6283465,41.7240603 L6.71496063,43.5147423 L2.03554556,36.2466802 L5.68548931,32.5131668 C5.10804233,30.7161991 4.76977314,28.850946 4.67941507,26.9655638 L0,24.7535449 L1.82497188,16.2916948 L7.05421822,16.2916948 L7.04251969,16.3033986 Z M17.0213723,23.676795 C15.9359371,28.686265 19.1151686,33.6275581 24.1223847,34.7134819 C29.1296008,35.7994057 34.0686705,32.6187431 35.1541057,27.609273 C36.239541,22.599803 33.0603094,17.6585099 28.0530934,16.5725861 C23.0458773,15.4866623 18.1068076,18.6673249 17.0213723,23.676795 Z" id="Shape"></path>
                </g>
                <path d="M286.677352,107.267428 C284.573958,83.7830494 276.289643,60.1934648 260.273299,42.7759817 C244.256955,25.3584985 219.721279,14.896319 196.30193,18.8240199 C172.88258,22.7517208 152.142413,42.6707754 150.556055,66.2486704 C149.721748,78.768217 153.916785,91.1942469 153.223487,103.725483 C152.048407,125.362907 136.43159,143.680488 118.969898,156.644239 C103.91712,167.807794 87.7010122,171.840701 76.9020246,187.037163 C57.5484528,214.425863 60.7681727,245.999434 72.2017036,264.878116 C76.1264717,271.365836 82.5659115,277.4678 90.2861887,282.669666 C112.471704,297.632336 140.203598,301.489899 166.172872,294.908662 C206.478125,284.680274 242.846858,259.3957 263.81029,226.583032 C288.169704,188.52174 290.143839,145.924889 286.677352,107.267428 Z" id="Path" fill="#023B88" fill-rule="nonzero"></path>
                <g id="Group" opacity="0.8" transform="translate(63.000000, 18.000000)" fill="#FFFFFF" fill-rule="nonzero">
                    <path d="M223.677352,89.2674276 C221.573958,65.7830494 213.289643,42.1934648 197.273299,24.7759817 C181.256955,7.35849852 156.721279,-3.10368095 133.30193,0.824019945 C109.88258,4.75172084 89.1424135,24.6707754 87.5560551,48.2486704 C86.7217481,60.768217 90.9167846,73.1942469 90.2234873,85.7254831 C89.048407,107.362907 73.4315904,125.680488 55.9698978,138.644239 C40.9171197,149.807794 24.7010122,153.840701 13.9020246,169.037163 C-5.4515472,196.425863 -2.2318273,227.999434 9.2017036,246.878116 C13.1264717,253.365836 19.5659115,259.4678 27.2861887,264.669666 C49.471704,279.632336 77.2035981,283.489899 103.172872,276.908662 C143.478125,266.680274 179.846858,241.3957 200.81029,208.583032 C225.169704,170.52174 227.143839,127.924889 223.677352,89.2674276 Z" id="Path"></path>
                </g>
                <circle id="Oval" fill="#023B88" fill-rule="nonzero" cx="116.5" cy="274.5" r="1.5"></circle>
                <circle id="Oval" fill="#023B88" fill-rule="nonzero" cx="143.5" cy="301.5" r="1"></circle>
                <path d="M211.243351,305.14638 C206.195333,307.211435 200.397999,314.429294 200.013482,320.103278 C199.784505,325.893349 202.484203,331.411575 207.200993,334.794669 C211.929851,338.106267 217.726804,339.540315 223.459162,338.81661 C227.51138,338.374098 231.622755,336.938393 234.363671,333.899812 C237.40037,330.585891 238.307436,325.787096 237.913059,321.322644 C237.363651,315.076553 234.057878,309.397585 228.891698,305.824898 C223.705648,302.442141 216.597012,301.960295 211.282789,305.126713" id="Path" fill="url(#linearGradient-2)" fill-rule="nonzero"></path>
                <g id="Group" opacity="0.8" transform="translate(228.000000, 301.000000)" fill="#EBEFF5" fill-rule="nonzero">
                    <path d="M7.10106404,1.37129841 C3.91284172,2.69063908 0.251367646,7.30204887 0.00851477401,10.9270944 C-0.136101834,14.6263065 1.56897007,18.1518395 4.54799539,20.313261 C7.53464279,22.4290038 11.195876,23.3452012 14.816313,22.882834 C17.3756086,22.6001181 19.9722663,21.6828622 21.7033714,19.7415467 C23.6212863,17.624319 24.19417,14.5584226 23.9450902,11.7061337 C23.5980951,7.71557571 21.5102387,4.08734608 18.2473882,1.80479606 C14.9719879,-0.356409619 10.4823233,-0.664255777 7.12597203,1.35873326" id="Path"></path>
                </g>
                <path d="M247,177.509766 C246.994592,178.889193 245.87293,180.00358 244.493496,180 C243.114062,179.996403 241.998213,178.876195 242,177.496757 C242.001791,176.11732 243.120543,175 244.499981,175 C245.164718,175 245.802087,175.264727 246.27121,175.735682 C246.740332,176.206637 247.002578,176.845034 247,177.509766 L247,177.509766 Z" id="Path" fill="#023B88"></path>
                <circle id="Oval" fill="#023B88" fill-rule="nonzero" cx="199.5" cy="63.5" r="1.5"></circle>
                <rect id="Rectangle" fill="#F7FBFF" fill-rule="nonzero" x="263" y="134" width="37" height="5"></rect>
                <rect id="Rectangle" fill="#F7FBFF" fill-rule="nonzero" x="264" y="145" width="15" height="5"></rect>
                <path d="M196.166897,152.020227 C196.166897,152.020227 142,150.281971 142,179.033658 C142,211.60246 152.762727,272.629323 196.166897,271.995095 C239.571067,271.360867 247.531246,185.787016 247.978711,181.981645 C248.014038,181.94641 250.274917,154.521905 196.166897,152.020227 Z" id="Path" fill="url(#linearGradient-3)" fill-rule="nonzero"></path>
                <path d="M250,176.603957 C249.933583,176.669009 249.857642,176.724967 249.774432,176.770167 L249.085858,177.202313 C248.468515,177.590136 247.542501,178.110927 246.343431,178.753606 C242.902547,180.527051 239.29896,182.010356 235.575549,183.185872 C230.041425,184.938397 224.334742,186.174399 218.539264,186.875734 C211.452931,187.71439 204.311964,188.084668 197.169707,187.983801 C190.032208,188.009357 182.898497,187.672747 175.80015,186.97546 C169.977095,186.391516 164.279506,185.002309 158.894457,182.853452 C155.273803,181.37338 151.921534,179.37721 148.957613,176.936377 C147.936623,176.049923 147.188689,175.318599 146.701938,174.808889 L146.167699,174.210533 C146.048979,174.077565 145.989619,174 146.001491,174 L146.215187,174.177291 L146.796913,174.731324 C147.307408,175.218873 148.079087,175.916955 149.171309,176.770167 C152.163489,179.119908 155.512118,181.042963 159.108152,182.47671 C164.470074,184.559898 170.129564,185.900062 175.906998,186.454669 C183.007358,187.122861 190.140249,187.444638 197.276555,187.418687 C204.394612,187.496608 211.510197,187.126413 218.57488,186.31062 C224.299738,185.663698 229.944964,184.506013 235.433086,182.853452 C239.148977,181.704141 242.758167,180.27368 246.224712,178.576315 C247.411909,177.955798 248.385411,177.468248 249.014626,177.124748 L249.738817,176.736925 C249.820574,176.684075 249.908129,176.639501 250,176.603957 Z" id="Path" fill="#263238" fill-rule="nonzero"></path>
                <path d="M215.919574,186 C215.973518,186.270298 216.00047,186.545787 216,186.821979 C216,187.365935 216,188.175826 216,189.239564 C216.001397,192.172933 215.708736,195.098276 215.126869,197.967045 C214.712816,199.952255 214.108494,201.888168 213.323177,203.745073 C212.448664,205.893404 211.288195,207.899946 209.876631,209.704419 C207.481379,212.787506 204.289421,215.075488 200.685843,216.292338 C199.393394,216.697657 198.058244,216.933146 196.710827,216.993437 C194.035945,217.074793 191.389418,216.39847 189.048007,215.035194 C186.886554,213.768273 184.9819,212.068129 183.441626,210.030793 C180.87204,206.561362 179.187414,202.458758 178.547531,198.1121 C178.096993,195.22047 177.923796,192.288518 178.030549,189.360443 C178.030549,188.320881 178.110969,187.523078 178.156923,186.942858 C178.162742,186.661729 178.197409,186.382085 178.260319,186.108791 C178.280339,186.386415 178.280339,186.665235 178.260319,186.942858 C178.260319,187.547254 178.260319,188.345057 178.260319,189.360443 C178.24265,192.270416 178.481097,195.175861 178.972605,198.039572 C179.645974,202.284302 181.329636,206.280599 183.8667,209.656067 C185.371731,211.623613 187.224908,213.26561 189.323731,214.491237 C191.561679,215.774863 194.082461,216.412919 196.630407,216.340689 C197.927243,216.281532 199.21218,216.054172 200.456073,215.663766 C201.651883,215.262286 202.806489,214.735851 203.902619,214.092336 C205.993385,212.834364 207.856371,211.197461 209.405603,209.257166 C210.812623,207.506755 211.97333,205.552724 212.852149,203.454962 C213.648236,201.635435 214.26792,199.736082 214.701795,197.785726 C215.316916,194.951227 215.670867,192.060929 215.758736,189.154948 C215.758736,188.175826 215.758736,187.390111 215.816178,186.737363 C215.82922,186.488774 215.863829,186.24196 215.919574,186 Z" id="Path" fill="#263238" fill-rule="nonzero"></path>
                <path d="M227,252.546523 C226.930611,252.546523 226.595229,251.37836 225.681605,249.392482 C224.390545,246.58412 222.737895,243.960318 220.766534,241.589152 C217.834782,238.074292 214.237006,235.186871 210.184677,233.096605 C200.041927,228.019438 188.042792,228.481205 178.31189,234.323176 C174.431864,236.715447 171.062582,239.86459 168.400795,243.586711 C166.616088,246.110792 165.165888,248.859822 164.087098,251.763854 C163.323816,253.819821 163.069389,255.023029 163,254.999666 C163.041167,254.708363 163.09909,254.419727 163.173473,254.135225 C163.359218,253.305059 163.590879,252.486061 163.867365,251.682082 C164.865555,248.719594 166.275117,245.915273 168.053849,243.353078 C170.705179,239.533426 174.101531,236.301546 178.034333,233.855911 C187.90157,227.853864 200.127725,227.386344 210.415974,232.617658 C214.515975,234.755817 218.140454,237.717271 221.067221,241.320474 C223.034324,243.742519 224.653893,246.432351 225.878207,249.310711 C226.294543,250.338695 226.583665,251.11747 226.745573,251.647037 C226.863145,251.936407 226.948479,252.238091 227,252.546523 L227,252.546523 Z" id="Path" fill="#263238" fill-rule="nonzero"></path>
                <path d="M220,221.875 L222.457971,210 L244,210 C243.246377,213.5125 242.168116,217.625 240.93913,222 L220,221.875 Z" id="Path" fill="#F7FBFF" fill-rule="nonzero"></path>
                <path d="M170,223.875 L167.539652,212 L146,212 C146.765957,215.5125 147.415861,219.625 148.634429,224 L170,223.875 Z" id="Path" fill="#F7FBFF" fill-rule="nonzero"></path>
                <path d="M246,173.89004 C240.785991,165.324008 226.995232,155.412896 197.246091,154.020621 C197.246091,154.020621 163.911586,152.935118 149.675585,166.515701 C148.326597,167.908075 147.110509,169.425006 146.043355,171.046495 C145.176306,172.674749 157.162667,187.163851 195.687746,185.924962 C235.43138,184.686073 246,173.89004 246,173.89004 Z" id="Path" fill="#000000" fill-rule="nonzero" opacity="0.4"></path>
                <path d="M142.869434,121.611501 C141.005692,117.476567 140.102406,112.741217 141.37158,108.39104 C142.640754,104.040863 146.448276,100.245786 151.021876,99.8492857" id="Path" fill="#010D1C" fill-rule="nonzero" transform="translate(145.901355, 110.730393) rotate(2.000000) translate(-145.901355, -110.730393) "></path>
                <path d="M150.996972,101 C151.058662,101.075269 150.170326,101.655914 148.998215,102.827957 C147.458352,104.336494 146.170706,106.027028 145.173433,107.849462 C144.251625,109.707847 143.464558,111.614822 142.816874,113.55914 C142.610486,114.388182 142.338398,115.203758 142.002565,116 C141.980135,115.142772 142.104894,114.287439 142.372706,113.462366 C142.912635,111.456369 143.664344,109.498204 144.618223,107.612903 C145.640461,105.738487 147.021495,104.029471 148.702103,102.55914 C149.341172,101.912231 150.121194,101.382282 150.996972,101 L150.996972,101 Z" id="Path" fill="#1B53A0" fill-rule="nonzero"></path>
                <path d="M251.744021,122 C253.757122,117.62988 254.732797,112.625195 253.361912,108.02759 C252.876456,106.39949 252.051827,104.844959 250.970839,103.497448 C248.999216,101.039712 246.174779,99.2706581 243,99" id="Path" fill="#010D1C" fill-rule="nonzero"></path>
                <path d="M244.004205,100 C244.908277,100.367955 245.71461,100.899129 246.37101,101.55914 C248.036146,103.02701 249.402162,104.73656 250.40922,106.612903 C251.352431,108.498204 252.095733,110.456369 252.629625,112.462366 C252.902011,113.286065 253.025524,114.142433 252.995626,115 C252.670536,114.201746 252.401625,113.386578 252.190424,112.55914 C251.542977,110.614048 250.756538,108.707012 249.835818,106.849462 C248.841449,105.02863 247.564471,103.338592 246.04161,101.827957 C244.821607,100.655914 243.931005,100.075269 244.004205,100 Z" id="Path" fill="#1B53A0" fill-rule="nonzero"></path>
                <path d="M148.422806,141.955594 C143.19551,136.562916 140.959653,128.898496 142.456197,121.50232 C145.538363,105.750947 156.87841,77.3984769 198.551627,78.0097242 C242.271868,78.6327262 250.483225,109.2186 251.890554,123.947309 C252.483544,130.038563 250.650205,136.117516 246.796256,140.838893 C240.294629,148.773353 226.48885,159.011745 198.551627,159 C170.881914,158.97648 156.006099,149.690223 148.422806,141.955594 Z" id="Path" fill="#023B88" fill-rule="nonzero"></path>
                <path d="M179,82 C179.105447,82.1692268 179.187548,82.3531492 179.243879,82.546338 L179.847772,84.1489294 C180.37037,85.5329856 181.102009,87.5483658 182.240113,89.9158304 C183.529034,92.7014811 185.296492,95.2158957 187.454488,97.3338861 C190.06547,99.9622909 193.550134,101.429048 197.174827,101.425351 C200.803035,101.187364 204.251924,99.6921692 206.97646,97.1760551 C209.200718,95.1319586 211.063971,92.6950395 212.481168,89.9765346 C213.462622,88.1467591 214.339041,86.2575415 215.105775,84.3189012 C215.663214,82.9469858 215.96516,82.1821127 216,82.1942535 C215.987257,82.3956565 215.940056,82.5930363 215.86064,82.777014 C215.756121,83.1533802 215.570308,83.711859 215.326428,84.4038871 C214.618502,86.3981089 213.76834,88.333945 212.783114,90.1950698 C211.388679,92.9962242 209.519631,95.5096204 207.266792,97.6131255 C204.461414,100.227577 200.892139,101.772346 197.139987,101.99597 C195.194738,102.045936 193.264275,101.630678 191.49592,100.781886 C189.856002,100.014595 188.349077,98.9684466 187.036409,97.6859706 C184.84389,95.5033458 183.070139,92.9031718 181.810421,90.025098 C180.949796,88.1173035 180.205067,86.1546887 179.580665,84.1489294 C179.363884,83.4285727 179.201297,82.8822347 179.092906,82.5099155 C179.048496,82.3429236 179.017421,82.1723663 179,82 L179,82 Z" id="Path" fill="#263238" fill-rule="nonzero"></path>
                <path d="M164.259159,141.323848 C157.021042,139.40142 151.9768,132.71874 152,125.083069 L152,124.798351 C152,115.534759 159.34556,108.019626 168.419056,108 L219.54629,108 C228.633403,108 236,115.520878 236,124.798351 C236.009065,132.518635 230.859287,139.249808 223.520271,141.11031 C203.243675,146.164051 183.466731,146.353863 164.259159,141.323848 Z" id="Path" fill="#010D1C" fill-rule="nonzero"></path>
                <path d="M176.949053,127.636206 C176.597699,129.816646 174.545315,131.29956 172.364662,130.948577 C170.184009,130.597595 168.700663,128.545594 169.051325,126.365044 C169.401987,124.184493 171.453901,122.700929 173.634665,123.05122 C174.682347,123.219507 175.620215,123.797185 176.241829,124.6571 C176.863442,125.517014 177.11785,126.58868 176.949053,127.636206 Z" id="Path" fill="#F7FBFF" fill-rule="nonzero"></path>
                <path d="M218.949053,124.636206 C218.597699,126.816646 216.545315,128.29956 214.364662,127.948577 C212.184009,127.597595 210.700663,125.545594 211.051325,123.365044 C211.401987,121.184493 213.453901,119.700929 215.634665,120.05122 C216.682347,120.219507 217.620215,120.797185 218.241829,121.6571 C218.863442,122.517014 219.11785,123.58868 218.949053,124.636206 Z" id="Path" fill="#F7FBFF" fill-rule="nonzero"></path>
                <path d="M202.943822,124 C203.105508,125.157106 202.916017,126.339346 202.403366,127.371924 C201.919369,128.520568 201.194985,129.533853 200.286582,130.332932 C199.16537,131.293501 197.799173,131.866598 196.368278,131.976593 C194.953184,132.097608 193.537745,131.747323 192.314861,130.973476 C191.323866,130.325233 190.493391,129.429669 189.894071,128.362955 C189.270658,127.414735 188.957829,126.271362 189.004571,125.111889 C189.349172,126.134435 189.786645,127.118116 190.310672,128.048725 C190.92668,128.976845 191.721587,129.751768 192.641387,130.320846 C193.763243,130.989602 195.044025,131.2881 196.32324,131.178934 C197.612987,131.083971 198.849175,130.588482 199.88124,129.752816 C200.738084,129.042232 201.444296,128.144124 201.952987,127.118123 C202.368046,126.112046 202.69961,125.068627 202.943822,124 L202.943822,124 Z" id="Path" fill="#F7FBFF" fill-rule="nonzero"></path>
            </g>
        </g>
    </g>
</svg>