<?xml version="1.0" encoding="UTF-8"?>
<svg width="49px" height="18px" viewBox="0 0 49 18" version="1.1" xmlns="http://www.w3.org/2000/svg" xmlns:xlink="http://www.w3.org/1999/xlink">
    <title>4B08976E-09FF-4015-B762-14B86C6F17A1</title>
    <g id="WhatsApp-Sharing" stroke="none" stroke-width="1" fill="none" fill-rule="evenodd">
        <g id="Cause-Landing-2-Mobile" transform="translate(-28.000000, -109.000000)" fill-rule="nonzero">
            <g id="kada-logo-copy" transform="translate(28.000000, 109.000000)">
                <path d="M20.9239567,6.31694394 L23.4071097,6.31694394 C23.564354,6.31694394 23.715158,6.38118292 23.8263465,6.49552904 C23.937535,6.60987516 24,6.76496178 24,6.92667161 L24,17.0707852 C24,17.4075285 23.734554,17.6805129 23.4071097,17.6805129 L20.9239567,17.6805129 C20.5966332,17.6803374 20.3313755,17.4074044 20.3313756,17.0707852 L20.3313756,16.6362191 C19.5799073,17.5454064 18.5412674,18 17.1928903,18 C15.7126224,18 14.4751159,17.431705 13.4803709,16.295115 C12.4859351,15.1360602 12,13.7045671 12,12 C12,10.2954329 12.4859351,8.86393981 13.4803709,7.72713786 C14.4751159,6.56808308 15.7125193,6 17.1928903,6 C18.5412674,6 19.5799073,6.45459362 20.3313756,7.36378086 L20.3313756,6.92667161 C20.3313755,6.59005243 20.5966332,6.31711945 20.9239567,6.31694394 L20.9239567,6.31694394 Z M18.0108192,14.4745152 C18.696136,14.4745152 19.2704791,14.2475363 19.6902628,13.7926248 C20.1100464,13.3377133 20.3313756,12.7473773 20.3313756,11.9974568 C20.3313756,11.2475363 20.1103555,10.6565646 19.6902628,10.2022889 C19.27017,9.74801314 18.696136,9.52039843 18.0108192,9.52039843 C17.3255023,9.52039843 16.7511592,9.74737734 16.3310665,10.2022889 C15.9109737,10.6572004 15.6890263,11.2488079 15.6890263,11.9987284 C15.6890263,12.7486489 15.9100464,13.3396206 16.32983,13.7938964 C16.7496136,14.2481721 17.3255023,14.4745152 18.0108192,14.4745152 Z" id="Shape" fill="#043C83"></path>
                <path d="M33.9239567,2 L36.4074189,2 C36.7347424,2.00017303 37,2.26926018 37,2.60113614 L37,17.0838786 C37,17.4157545 36.7347424,17.6848417 36.4074189,17.6850147 L33.9239567,17.6850147 C33.5966332,17.6848417 33.3313755,17.4157545 33.3313756,17.0838786 L33.3313756,16.6554358 C32.5799073,17.5518119 31.5412674,18 30.1928903,18 C28.7124163,18 27.4749098,17.4397127 26.4803709,16.3191381 C25.4859351,15.1764153 25,13.765093 25,12.0845446 C25,10.4039961 25.4859351,8.99267385 26.4803709,7.8718903 C27.4751159,6.72916748 28.7125193,6.16908913 30.1928903,6.16908913 C31.0692427,6.16908913 31.8145286,6.35714006 32.4352396,6.73668952 C32.6174231,6.84911721 32.8452775,6.85306435 33.0311426,6.74701241 C33.2170077,6.64096046 33.3319255,6.44143255 33.3316847,6.22519099 L33.3316847,2.60113614 C33.3316845,2.26938246 33.5967539,2.00034594 33.9239567,2 Z M31.0108192,14.524192 C31.696136,14.524192 32.2704791,14.3004114 32.6902628,13.8519099 C33.1100464,13.4034084 33.3313756,12.8213908 33.3313756,12.0820372 C33.3313756,11.3426836 33.1103555,10.7600392 32.6902628,10.3121645 C32.27017,9.86428991 31.696136,9.63988247 31.0108192,9.63988247 C30.3255023,9.63988247 29.7511592,9.86366308 29.3313756,10.3121645 C28.911592,10.760666 28.6893354,11.3439373 28.6893354,12.0832909 C28.6893354,12.8226445 28.9103555,13.4052889 29.3304482,13.8531636 C29.750541,14.3010382 30.3255023,14.524192 31.0108192,14.524192 Z" id="Shape" fill="#043C83"></path>
                <path d="M45.9239567,6.31694394 L48.4074189,6.31694394 C48.7347424,6.31711945 49,6.59005243 49,6.92667161 L49,17.0707852 C49,17.4074044 48.7347424,17.6803374 48.4074189,17.6805129 L45.9239567,17.6805129 C45.5966332,17.6803374 45.3313755,17.4074044 45.3313756,17.0707852 L45.3313756,16.6362191 C44.5799073,17.5454064 43.5412674,18 42.1931994,18 C40.7125193,18 39.4749098,17.431705 38.4803709,16.295115 C37.4859351,15.1360602 37,13.7045671 37,12 C37,10.2954329 37.4859351,8.86393981 38.4803709,7.72713786 C39.4751159,6.56808308 40.7125193,6 42.1931994,6 C43.5412674,6 44.5799073,6.45459362 45.3313756,7.36378086 L45.3313756,6.92667161 C45.3313755,6.59005243 45.5966332,6.31711945 45.9239567,6.31694394 Z M43.0108192,14.4745152 C43.696136,14.4745152 44.2704791,14.2475363 44.6905719,13.7926248 C45.1106646,13.3377133 45.3313756,12.7473773 45.3313756,11.9974568 C45.3313756,11.2475363 45.1103555,10.6565646 44.6905719,10.2022889 C44.2707883,9.74801314 43.696136,9.52039843 43.0108192,9.52039843 C42.3255023,9.52039843 41.7511592,9.74737734 41.3313756,10.2022889 C40.911592,10.6572004 40.6896445,11.2488079 40.6896445,11.9987284 C40.6896445,12.7486489 40.9103555,13.3396206 41.3304482,13.7938964 C41.750541,14.2481721 42.3258114,14.4745152 43.0108192,14.4745152 Z" id="Shape" fill="#043C83"></path>
                <path d="M6.47093362,9 C6.29394551,9.2365287 5.58288802,10.18529 5.32641052,10.5180842 C4.64950864,11.3957214 3.57453876,12.4414098 2.29649832,12.4414098 C2.03079021,12.4414792 1.76694386,12.3941821 1.51588762,12.3014775 C0.784026266,12.0318678 0.303984837,11.4671762 0.0077626363,11.0662353 C0.00496808723,11.0625964 0.00248404362,11.0582959 0,11.054657 L0,17.3526056 C0.000657468548,17.524832 0.0655062002,17.6897261 0.180279927,17.8110122 C0.295053654,17.9322984 0.450350501,18 0.612006246,17.9993379 L3.3829569,17.9993379 C3.71939693,18.0006201 3.99325225,17.7113739 3.99496314,17.3529364 L3.99651567,14.1037269 C4.02601369,13.6531645 4.46227385,13.5443282 4.71968287,14.0471585 L7.57012292,17.7022711 C7.68319196,17.8881541 7.8770329,18.0002557 8.08494096,18 L11.3871664,18 C11.8712444,18 12.1634301,17.4339847 11.9019845,17.0036018 L6.47093362,9 Z" id="Path" fill="#043C84"></path>
                <path d="M8.53469592,0.429474242 L4.35341409,6.74051246 C4.28060729,6.83436893 4.14297689,6.77643683 4.14297689,6.65183428 L4.14297689,3.02703285 C4.14297689,2.67102556 3.88559846,2.38233602 3.56818635,2.38233602 L0.574804969,2.38233602 C0.255476893,2.38233602 -0.00222086389,2.6736147 0,3.03221113 C0.0175774768,5.63074066 0.0354598491,8.25192521 0.0533422213,10.8504547 C0.0544644702,11.1975898 0.169000024,11.5345725 0.379056859,11.8087616 C0.672838689,12.1871003 1.10680554,12.6612372 1.74705834,12.8851982 C2.9557151,13.3085232 4.21482571,12.514627 5.22773436,11.2669833 C5.52534813,10.8999721 6.444055,9.73226822 6.444055,9.73226822 L12.9181124,0.599710452 C13.1023647,0.367334789 12.9554738,0 12.6786164,0 L9.37740271,0 C9.05456202,0 8.74736842,0.156643205 8.53469592,0.429474242 Z" id="Path" fill="#FFBD1F"></path>
            </g>
        </g>
    </g>
</svg>