<?xml version="1.0" encoding="UTF-8"?>
<svg width="329px" height="50px" viewBox="0 0 329 50" version="1.1" xmlns="http://www.w3.org/2000/svg" xmlns:xlink="http://www.w3.org/1999/xlink">
    <title>Group 8 Copy</title>
    <g id="WhatsApp-Sharing" stroke="none" stroke-width="1" fill="none" fill-rule="evenodd">
        <g id="Group-8-Copy">
            <rect id="Rectangle" fill="#023B88" x="0" y="0" width="329" height="50" rx="5"></rect>
            <g id="Group-5" transform="translate(94.000000, 18.000031)" fill="#FFFFFF" fill-rule="nonzero">
                <g id="Group-6">
                    <g id="Make-Payment" transform="translate(29.147726, 1.363616)">
                        <polygon id="Path" points="0 0 0 11.6363525 2.02272534 11.6363525 2.02272534 3.62499654 2.13067979 3.62499654 5.34658581 11.6022617 6.85794801 11.6022617 10.073854 3.64204198 10.1818085 3.64204198 10.1818085 11.6363525 12.2045338 11.6363525 12.2045338 0 9.62499082 0 6.17044866 8.43181014 6.03408515 8.43181014 2.57954299 0"></polygon>
                        <path d="M16.9204522,11.8124887 C18.2897691,11.8124887 19.1079502,11.1704439 19.4829498,10.43749 L19.5511315,10.43749 L19.5511315,11.6363525 L21.5284024,11.6363525 L21.5284024,5.79545188 C21.5284024,3.48863304 19.6477224,2.79545188 17.9829512,2.79545188 C16.1477257,2.79545188 14.7386361,3.61363292 14.2840911,5.20454049 L16.2045438,5.4772675 C16.4090891,4.88067716 16.988634,4.36931401 17.9943148,4.36931401 C18.9488594,4.36931401 19.4715862,4.85794991 19.4715862,5.71590364 L19.4715862,5.74999452 C19.4715862,6.34090304 18.8522686,6.36931211 17.3124973,6.53408468 C15.6193171,6.71590269 14.0000005,7.22158402 14.0000005,9.18749124 C14.0000005,10.9033987 15.2556811,11.8124887 16.9204522,11.8124887 Z M17.4545426,10.3011265 C16.5965889,10.3011265 15.9829531,9.90908146 15.9829531,9.15340036 C15.9829531,8.36362839 16.6704525,8.03408325 17.5909061,7.90340155 C18.1306784,7.82953799 19.2102228,7.69317448 19.477268,7.4772656 L19.477268,8.50567371 C19.477268,9.4772656 18.6931778,10.3011265 17.4545426,10.3011265 Z" id="Shape"></path>
                        <polygon id="Path" points="23.6022728 11.6363525 25.659089 11.6363525 25.659089 8.70453715 26.4090883 7.90340155 29.0795403 11.6363525 31.5397652 11.6363525 27.9602232 6.67613 31.3409018 2.90908813 28.937495 2.90908813 25.8011344 6.41476661 25.659089 6.41476661 25.659089 0 23.6022728 0"></polygon>
                        <path d="M36.2045419,11.8068069 C38.2386308,11.8068069 39.6363568,10.8124897 39.9999928,9.29545188 L38.0795401,9.0795368 C37.8011312,9.81817245 37.1193137,10.2045357 36.2329509,10.2045357 C34.9034067,10.2045357 34.0227258,9.32953656 34.0056803,7.8352198 L40.08522,7.8352198 L40.08522,7.20453858 C40.08522,4.1420415 38.2443126,2.79545188 36.0965874,2.79545188 C33.5965898,2.79545188 31.9659095,4.6306774 31.9659095,7.32385665 C31.9659095,10.0624904 33.5738625,11.8068069 36.2045419,11.8068069 Z M34.0113621,6.44885749 C34.0738621,5.33522218 34.8977249,4.39772308 36.1249965,4.39772308 C37.3068135,4.39772308 38.1022673,5.26135862 38.1136309,6.44885749 L34.0113621,6.44885749 Z" id="Shape"></path>
                        <path d="M45.8863636,11.6363525 L47.9943162,11.6363525 L47.9943162,7.70453811 L50.2215868,7.70453811 C52.9090842,7.70453811 54.3522647,6.09090328 54.3522647,3.85226905 C54.3522647,1.63068026 52.9261296,0 50.2499958,0 L45.8863636,0 L45.8863636,11.6363525 Z M47.9943162,5.97158521 L47.9943162,1.76136196 L49.9261325,1.76136196 C51.5056765,1.76136196 52.2045394,2.61363387 52.2045394,3.85226905 C52.2045394,5.09090424 51.5056765,5.97158521 49.9374961,5.97158521 L47.9943162,5.97158521 Z" id="Shape"></path>
                        <path d="M58.4488613,11.8124887 C59.8181782,11.8124887 60.6363592,11.1704439 61.0113589,10.43749 L61.0795406,10.43749 L61.0795406,11.6363525 L63.0568115,11.6363525 L63.0568115,5.79545188 C63.0568115,3.48863304 61.1761315,2.79545188 59.5113603,2.79545188 C57.6761348,2.79545188 56.2670452,3.61363292 55.8125002,5.20454049 L57.7329529,5.4772675 C57.9374982,4.88067716 58.5170431,4.36931401 59.5227239,4.36931401 C60.4772685,4.36931401 60.9999953,4.85794991 60.9999953,5.71590364 L60.9999953,5.74999452 C60.9999953,6.34090304 60.3806777,6.36931211 58.8409064,6.53408468 C57.1477262,6.71590269 55.5284096,7.22158402 55.5284096,9.18749124 C55.5284096,10.9033987 56.7840902,11.8124887 58.4488613,11.8124887 Z M58.9829517,10.3011265 C58.124998,10.3011265 57.5113622,9.90908146 57.5113622,9.15340036 C57.5113622,8.36362839 58.1988616,8.03408325 59.1193152,7.90340155 C59.6590874,7.82953799 60.7386319,7.69317448 61.0056771,7.4772656 L61.0056771,8.50567371 C61.0056771,9.4772656 60.2215869,10.3011265 58.9829517,10.3011265 Z" id="Shape"></path>
                        <path d="M66.090908,14.9090767 C67.6931792,14.9090767 68.6193189,14.0852138 69.1136323,12.6931697 L72.6079472,2.90908813 L70.4204493,2.90908813 L68.4034058,9.49999094 L68.3124967,9.49999094 L66.301135,2.90908813 L64.1193189,2.90908813 L67.2840886,11.8181705 L67.1079524,12.289761 C66.727271,13.2840782 66.1249988,13.35226 65.2272724,13.0908966 L64.7500001,14.6931678 C65.028409,14.8068041 65.5284085,14.9090767 66.090908,14.9090767 Z" id="Path"></path>
                        <path d="M74.0284092,11.6363525 L76.0852254,11.6363525 L76.0852254,6.32953942 C76.0852254,5.25567681 76.8011338,4.52840477 77.6874966,4.52840477 C78.5568139,4.52840477 79.1534043,5.11363149 79.1534043,6.0113579 L79.1534043,11.6363525 L81.1704478,11.6363525 L81.1704478,6.19317591 C81.1704478,5.2102223 81.7556745,4.52840477 82.7499918,4.52840477 C83.5795364,4.52840477 84.2386267,5.01704067 84.2386267,6.09658509 L84.2386267,11.6363525 L86.3011247,11.6363525 L86.3011247,5.77840358 C86.3011247,3.8295418 85.1761258,2.79545188 83.5738546,2.79545188 C82.3068104,2.79545188 81.3409022,3.42045128 80.9545389,4.39204127 L80.8636299,4.39204127 C80.5284092,3.40340585 79.6818129,2.79545188 78.5056776,2.79545188 C77.3352242,2.79545188 76.460225,3.39772403 76.096589,4.39204127 L75.9943164,4.39204127 L75.9943164,2.90908813 L74.0284092,2.90908813 L74.0284092,11.6363525 Z" id="Path"></path>
                        <path d="M92.2556782,11.8068069 C94.2897672,11.8068069 95.6874931,10.8124897 96.0511291,9.29545188 L94.1306764,9.0795368 C93.8522676,9.81817245 93.1704501,10.2045357 92.2840873,10.2045357 C90.9545431,10.2045357 90.0738621,9.32953656 90.0568167,7.8352198 L96.1363563,7.8352198 L96.1363563,7.20453858 C96.1363563,4.1420415 94.295449,2.79545188 92.1477238,2.79545188 C89.6477262,2.79545188 88.0170459,4.6306774 88.0170459,7.32385665 C88.0170459,10.0624904 89.6249989,11.8068069 92.2556782,11.8068069 Z M90.0624985,6.44885749 C90.1249984,5.33522218 90.9488613,4.39772308 92.1761328,4.39772308 C93.3579499,4.39772308 94.1534037,5.26135862 94.1647673,6.44885749 L90.0624985,6.44885749 Z" id="Shape"></path>
                        <path d="M99.9318163,6.52272105 C99.9318163,5.26135862 100.693179,4.53408659 101.778405,4.53408659 C102.840904,4.53408659 103.477267,5.23294955 103.477267,6.39772117 L103.477267,11.6363525 L105.534104,11.6363525 L105.534104,6.07953966 C105.539766,3.98863256 104.346585,2.79545188 102.54545,2.79545188 C101.238633,2.79545188 100.340907,3.42045128 99.9431799,4.39204127 L99.8409073,4.39204127 L99.8409073,2.90908813 L97.8750001,2.90908813 L97.8750001,11.6363525 L99.9318163,11.6363525 L99.9318163,6.52272105 Z" id="Path"></path>
                        <path d="M111.988632,2.90908813 L110.267043,2.90908813 L110.267043,0.818181038 L108.210227,0.818181038 L108.210227,2.90908813 L106.971592,2.90908813 L106.971592,4.49999571 L108.210227,4.49999571 L108.210227,9.35226381 C108.198863,10.9943077 109.392044,11.8011251 110.937497,11.7556706 C111.522724,11.7386252 111.926132,11.6249889 112.147723,11.5511253 L111.801132,9.94317234 C111.687496,9.9715814 111.454542,10.0227177 111.19886,10.0227177 C110.681815,10.0227177 110.267043,9.84089971 110.267043,9.01135504 L110.267043,4.49999571 L111.988632,4.49999571 L111.988632,2.90908813 Z" id="Path"></path>
                    </g>
                    <g id="credit-card">
                        <path d="M16.4968479,0 L1.50310921,0 C0.671873398,0 0,0.671873398 0,1.5 L0,12.4999702 C0,13.3280932 0.671873398,13.9999666 1.50310921,13.9999666 L16.4968479,13.9999666 C17.3280837,13.9999666 17.9999571,13.3280932 17.9999571,12.4999702 L17.9999571,1.5 C17.9999571,0.671873398 17.3280837,0 16.4968479,0 Z M1.69060876,1.49999642 L16.3093483,1.49999642 C16.412467,1.49999642 16.4968479,1.58437733 16.4968479,1.68749598 L16.4968479,2.99999642 L1.50310921,2.99999642 L1.50310921,1.68749598 C1.50310921,1.58437733 1.58749011,1.49999642 1.69060876,1.49999642 Z M16.3093483,12.4999702 L1.69060876,12.4999702 C1.58749011,12.4999702 1.50310921,12.4155893 1.50310921,12.3124706 L1.50310921,6.99998331 L16.4968479,6.99998331 L16.4968479,12.3124706 C16.4968479,12.4155893 16.412467,12.4999702 16.3093483,12.4999702 Z M5.99999285,9.37497765 C5.99999285,9.16874035 5.83122389,8.99997854 5.62498659,8.99997854 L3.37499195,8.99997854 C3.16875465,8.99997854 2.99999285,9.16874035 2.99999285,9.37497765 L2.99999285,10.6249747 C2.99999285,10.831212 3.16875465,10.9999785 3.37499195,10.9999785 L5.62498659,10.9999785 C5.83122389,10.9999785 5.99999285,10.831212 5.99999285,10.6249747 L5.99999285,9.37497765 Z M11.9999714,9.37497765 C11.9999714,9.16874035 11.8312096,8.99997854 11.6249723,8.99997854 L7.37498242,8.99997854 C7.16874512,8.99997854 6.99998331,9.16874035 6.99998331,9.37497765 L6.99998331,10.6249747 C6.99998331,10.831212 7.16874512,10.9999785 7.37498242,10.9999785 L11.6249723,10.9999785 C11.8312096,10.9999785 11.9999714,10.831212 11.9999714,10.6249747 L11.9999714,9.37497765 Z" id="Shape"></path>
                    </g>
                </g>
            </g>
        </g>
    </g>
</svg>