<?xml version="1.0" encoding="UTF-8"?>
<svg width="290px" height="50px" viewBox="0 0 290 50" version="1.1" xmlns="http://www.w3.org/2000/svg" xmlns:xlink="http://www.w3.org/1999/xlink">
    <title>Group 8 Copy 2</title>
    <g id="WhatsApp" stroke="none" stroke-width="1" fill="none" fill-rule="evenodd">
        <g id="Group-8-Copy-2">
            <rect id="Rectangle" fill="#023B88" x="0" y="0" width="290" height="50" rx="5"></rect>
            <g id="Group-5" transform="translate(74.000000, 15.647828)" fill="#FFFFFF" fill-rule="nonzero">
                <g id="Retry-Payment" transform="translate(30.147726, 3.715820)">
                    <path d="M0,11.6363525 L2.10795254,11.6363525 L2.10795254,7.37499297 L4.25567776,7.37499297 L6.53976649,11.6363525 L8.89203697,11.6363525 L6.37499392,7.02272058 C7.7443108,6.47158474 8.46590102,5.30113131 8.46590102,3.72158736 C8.46590102,1.5 7.0340842,0 4.3636322,0 L0,0 L0,11.6363525 Z M2.10795254,5.62499464 L2.10795254,1.76136196 L4.03976887,1.76136196 C5.61363101,1.76136196 6.31817579,2.48295218 6.31817579,3.72158736 C6.31817579,4.96022254 5.61363101,5.62499464 4.0511325,5.62499464 L2.10795254,5.62499464 Z" id="Shape"></path>
                    <path d="M14.0568146,11.8068069 C16.0909036,11.8068069 17.4886295,10.8124897 17.8522655,9.29545188 L15.9318128,9.0795368 C15.653404,9.81817245 14.9715864,10.2045357 14.0852236,10.2045357 C12.7556795,10.2045357 11.8749985,9.32953656 11.857953,7.8352198 L17.9374927,7.8352198 L17.9374927,7.20453858 C17.9374927,4.1420415 16.0965854,2.79545188 13.9488601,2.79545188 C11.4488625,2.79545188 9.81818226,4.6306774 9.81818226,7.32385665 C9.81818226,10.0624904 11.4261353,11.8068069 14.0568146,11.8068069 Z M11.8636349,6.44885749 C11.9261348,5.33522218 12.7499976,4.39772308 13.9772692,4.39772308 C15.1590863,4.39772308 15.95454,5.26135862 15.9659037,6.44885749 L11.8636349,6.44885749 Z" id="Shape"></path>
                    <path d="M24.0340868,2.90908813 L22.3124976,2.90908813 L22.3124976,0.818181038 L20.2556814,0.818181038 L20.2556814,2.90908813 L19.0170462,2.90908813 L19.0170462,4.49999571 L20.2556814,4.49999571 L20.2556814,9.35226381 C20.2443177,10.9943077 21.4374984,11.8011251 22.9829515,11.7556706 C23.5681782,11.7386252 23.9715869,11.6249889 24.1931776,11.5511253 L23.846587,9.94317234 C23.7329508,9.9715814 23.4999964,10.0227177 23.2443149,10.0227177 C22.7272699,10.0227177 22.3124976,9.84089971 22.3124976,9.01135504 L22.3124976,4.49999571 L24.0340868,4.49999571 L24.0340868,2.90908813 Z" id="Path"></path>
                    <path d="M25.7556819,11.6363525 L27.8124981,11.6363525 L27.8124981,6.50567561 C27.8124981,5.39772213 28.6477246,4.61363196 29.7784053,4.61363196 C30.1249959,4.61363196 30.5568137,4.6761319 30.7329499,4.73295003 L30.7329499,2.84090638 C30.5454501,2.80681551 30.2215867,2.78408825 29.9943142,2.78408825 C28.9943152,2.78408825 28.1590887,3.35226953 27.8409072,4.3636322 L27.7499982,4.3636322 L27.7499982,2.90908813 L25.7556819,2.90908813 L25.7556819,11.6363525 Z" id="Path"></path>
                    <path d="M33.653408,14.9090767 C35.2556792,14.9090767 36.1818189,14.0852138 36.6761323,12.6931697 L40.1704472,2.90908813 L37.9829493,2.90908813 L35.9659058,9.49999094 L35.8749967,9.49999094 L33.863635,2.90908813 L31.6818189,2.90908813 L34.8465886,11.8181705 L34.6704524,12.289761 C34.289771,13.2840782 33.6874988,13.35226 32.7897724,13.0908966 L32.3125001,14.6931678 C32.590909,14.8068041 33.0909085,14.9090767 33.653408,14.9090767 Z" id="Path"></path>
                    <path d="M45.6534091,11.6363525 L47.7613616,11.6363525 L47.7613616,7.70453811 L49.9886322,7.70453811 C52.6761297,7.70453811 54.1193101,6.09090328 54.1193101,3.85226905 C54.1193101,1.63068026 52.6931751,0 50.0170413,0 L45.6534091,0 L45.6534091,11.6363525 Z M47.7613616,5.97158521 L47.7613616,1.76136196 L49.693178,1.76136196 C51.2727219,1.76136196 51.9715849,2.61363387 51.9715849,3.85226905 C51.9715849,5.09090424 51.2727219,5.97158521 49.7045416,5.97158521 L47.7613616,5.97158521 Z" id="Shape"></path>
                    <path d="M58.2159068,11.8124887 C59.5852237,11.8124887 60.4034047,11.1704439 60.7784043,10.43749 L60.8465861,10.43749 L60.8465861,11.6363525 L62.8238569,11.6363525 L62.8238569,5.79545188 C62.8238569,3.48863304 60.9431769,2.79545188 59.2784058,2.79545188 C57.4431802,2.79545188 56.0340907,3.61363292 55.5795457,5.20454049 L57.4999984,5.4772675 C57.7045436,4.88067716 58.2840885,4.36931401 59.2897694,4.36931401 C60.2443139,4.36931401 60.7670407,4.85794991 60.7670407,5.71590364 L60.7670407,5.74999452 C60.7670407,6.34090304 60.1477231,6.36931211 58.6079519,6.53408468 C56.9147717,6.71590269 55.295455,7.22158402 55.295455,9.18749124 C55.295455,10.9033987 56.5511356,11.8124887 58.2159068,11.8124887 Z M58.7499972,10.3011265 C57.8920435,10.3011265 57.2784077,9.90908146 57.2784077,9.15340036 C57.2784077,8.36362839 57.965907,8.03408325 58.8863607,7.90340155 C59.4261329,7.82953799 60.5056773,7.69317448 60.7727225,7.4772656 L60.7727225,8.50567371 C60.7727225,9.4772656 59.9886324,10.3011265 58.7499972,10.3011265 Z" id="Shape"></path>
                    <path d="M65.8579534,14.9090767 C67.4602246,14.9090767 68.3863644,14.0852138 68.8806778,12.6931697 L72.3749927,2.90908813 L70.1874947,2.90908813 L68.1704512,9.49999094 L68.0795422,9.49999094 L66.0681805,2.90908813 L63.8863644,2.90908813 L67.0511341,11.8181705 L66.8749979,12.289761 C66.4943164,13.2840782 65.8920443,13.35226 64.9943179,13.0908966 L64.5170456,14.6931678 C64.7954544,14.8068041 65.2954539,14.9090767 65.8579534,14.9090767 Z" id="Path"></path>
                    <path d="M73.7954546,11.6363525 L75.8522709,11.6363525 L75.8522709,6.32953942 C75.8522709,5.25567681 76.5681793,4.52840477 77.4545421,4.52840477 C78.3238594,4.52840477 78.9204497,5.11363149 78.9204497,6.0113579 L78.9204497,11.6363525 L80.9374933,11.6363525 L80.9374933,6.19317591 C80.9374933,5.2102223 81.52272,4.52840477 82.5170372,4.52840477 C83.3465819,4.52840477 84.0056722,5.01704067 84.0056722,6.09658509 L84.0056722,11.6363525 L86.0681702,11.6363525 L86.0681702,5.77840358 C86.0681702,3.8295418 84.9431713,2.79545188 83.3409001,2.79545188 C82.0738558,2.79545188 81.1079477,3.42045128 80.7215844,4.39204127 L80.6306754,4.39204127 C80.2954546,3.40340585 79.4488583,2.79545188 78.2727231,2.79545188 C77.1022697,2.79545188 76.2272705,3.39772403 75.8636345,4.39204127 L75.7613618,4.39204127 L75.7613618,2.90908813 L73.7954546,2.90908813 L73.7954546,11.6363525 Z" id="Path"></path>
                    <path d="M92.0227237,11.8068069 C94.0568126,11.8068069 95.4545386,10.8124897 95.8181746,9.29545188 L93.8977219,9.0795368 C93.6193131,9.81817245 92.9374955,10.2045357 92.0511327,10.2045357 C90.7215886,10.2045357 89.8409076,9.32953656 89.8238621,7.8352198 L95.9034018,7.8352198 L95.9034018,7.20453858 C95.9034018,4.1420415 94.0624945,2.79545188 91.9147692,2.79545188 C89.4147716,2.79545188 87.7840914,4.6306774 87.7840914,7.32385665 C87.7840914,10.0624904 89.3920444,11.8068069 92.0227237,11.8068069 Z M89.8295439,6.44885749 C89.8920439,5.33522218 90.7159067,4.39772308 91.9431783,4.39772308 C93.1249954,4.39772308 93.9204491,5.26135862 93.9318128,6.44885749 L89.8295439,6.44885749 Z" id="Shape"></path>
                    <path d="M99.6988618,6.52272105 C99.6988618,5.26135862 100.460225,4.53408659 101.545451,4.53408659 C102.60795,4.53408659 103.244313,5.23294955 103.244313,6.39772117 L103.244313,11.6363525 L105.301149,11.6363525 L105.301149,6.07953966 C105.306811,3.98863256 104.11363,2.79545188 102.312496,2.79545188 C101.005679,2.79545188 100.107952,3.42045128 99.7102254,4.39204127 L99.6079528,4.39204127 L99.6079528,2.90908813 L97.6420455,2.90908813 L97.6420455,11.6363525 L99.6988618,11.6363525 L99.6988618,6.52272105 Z" id="Path"></path>
                    <path d="M111.755678,2.90908813 L110.034088,2.90908813 L110.034088,0.818181038 L107.977272,0.818181038 L107.977272,2.90908813 L106.738637,2.90908813 L106.738637,4.49999571 L107.977272,4.49999571 L107.977272,9.35226381 C107.965909,10.9943077 109.159089,11.8011251 110.704542,11.7556706 C111.289769,11.7386252 111.693178,11.6249889 111.914769,11.5511253 L111.568178,9.94317234 C111.454542,9.9715814 111.221587,10.0227177 110.965906,10.0227177 C110.448861,10.0227177 110.034088,9.84089971 110.034088,9.01135504 L110.034088,4.49999571 L111.755678,4.49999571 L111.755678,2.90908813 Z" id="Path"></path>
                </g>
                <g id="repeat">
                    <path d="M17.9999571,8.60218858 C17.9999571,7.69173314 17.782497,6.83116238 17.3967404,6.06960566 C17.1384594,5.55956659 16.4541157,5.4550594 16.0498542,5.85932098 L15.6215257,6.28761509 C15.3751922,6.53394858 15.312742,6.90614389 15.4554952,7.22392267 C15.6446313,7.64497269 15.7499624,8.11147854 15.7499624,8.60218858 C15.7499624,10.4631651 14.235947,11.9771805 12.3749705,11.9771805 L5.97891717,11.9771805 L7.19221689,10.8375577 C7.53941836,10.5114019 7.54800141,9.96277341 7.21116826,9.62594026 L6.83234684,9.24711884 C6.50282645,8.91759844 5.96865185,8.91759844 5.63913145,9.24711884 L2.38062863,12.5056217 C2.05110824,12.8351421 2.05110824,13.3693167 2.38062863,13.698837 L5.63913145,16.9573399 C5.96865185,17.2868259 6.50282645,17.2868259 6.83234684,16.9573399 L7.21116826,16.5785184 C7.54796708,16.2416853 7.53938403,15.6930225 7.19221689,15.366901 L5.97891717,14.2271752 L12.3749705,14.2271752 C15.4766095,14.2271752 17.9999571,11.7037933 17.9999571,8.60218858 Z M2.54446186,9.98045449 C2.35532581,9.55940447 2.24999464,9.09289862 2.24999464,8.60218858 C2.24999464,6.74121203 3.76401004,5.22719663 5.62498659,5.22719663 L12.0210399,5.22719663 L10.8077402,6.36692246 C10.4605731,6.69304396 10.45199,7.24170675 10.7887888,7.5785399 L11.1676102,7.95736132 C11.4971306,8.28684738 12.0313052,8.28684738 12.3608256,7.95736132 L15.6193285,4.6988585 C15.9488488,4.36933811 15.9488488,3.83516351 15.6193285,3.50564312 L12.3608256,0.247140295 C12.0313052,-0.0823800984 11.4971306,-0.0823800984 11.1676102,0.247140295 L10.7887888,0.625961719 C10.4519557,0.962794869 10.4605387,1.51142332 10.8077402,1.83757916 L12.0210399,2.97720199 L5.62498659,2.97720199 C2.52334756,2.97720199 0,5.50058389 0,8.60218858 C0,9.51264402 0.217460114,10.3732148 0.603182308,11.1348058 C0.8614634,11.6448449 1.54580701,11.7493521 1.95006859,11.3451249 L2.37839704,10.9167964 C2.62476486,10.6704286 2.68728378,10.2982333 2.54446186,9.98045449 Z" id="Shape"></path>
                </g>
            </g>
        </g>
    </g>
</svg>