<?xml version="1.0" encoding="UTF-8"?>
<svg width="169px" height="50px" viewBox="0 0 169 50" version="1.1" xmlns="http://www.w3.org/2000/svg" xmlns:xlink="http://www.w3.org/1999/xlink">
    <title>Group 8</title>
    <g id="WhatsApp-Sharing" stroke="none" stroke-width="1" fill="none" fill-rule="evenodd">
        <g id="Cause-Landing-1-Mobile" transform="translate(-171.000000, -674.000000)">
            <g id="Group-8" transform="translate(171.000000, 674.000000)">
                <g id="Group-3">
                    <rect id="Rectangle" fill="#023B88" x="0" y="0" width="169" height="50" rx="5"></rect>
                    <g id="Group-2" transform="translate(21.000000, 17.000031)" fill="#FFFFFF" fill-rule="nonzero">
                        <g id="Donate-Only" transform="translate(34.000000, 0.000000)">
                            <path d="M3.76704186,11.7954433 C7.31249303,11.7954433 9.36362743,9.59658176 9.36362743,5.96022159 C9.36362743,2.34090686 7.31249303,0.159090757 3.88635993,0.159090757 L0,0.159090757 L0,11.7954433 L3.76704186,11.7954433 Z M1.75568014,10.2613539 L1.75568014,1.6931802 L3.77840549,1.6931802 C6.32385761,1.6931802 7.63635635,3.21590602 7.63635635,5.96022159 C7.63635635,8.71590078 6.32385761,10.2613539 3.67045105,10.2613539 L1.75568014,10.2613539 Z" id="Shape"></path>
                            <path d="M15.0852239,11.9715795 C17.5454488,11.9715795 19.1534018,10.1704448 19.1534018,7.47158378 C19.1534018,4.75567728 17.5454488,2.95454264 15.0852239,2.95454264 C12.624999,2.95454264 11.017046,4.75567728 11.017046,7.47158378 C11.017046,10.1704448 12.624999,11.9715795 15.0852239,11.9715795 Z M15.0909057,10.5454445 C13.4829527,10.5454445 12.7329534,9.14203674 12.7329534,7.46590197 C12.7329534,5.79544902 13.4829527,4.37499583 15.0909057,4.37499583 C16.6874951,4.37499583 17.4374944,5.79544902 17.4374944,7.46590197 C17.4374944,9.14203674 16.6874951,10.5454445 15.0909057,10.5454445 Z" id="Shape"></path>
                            <path d="M22.7443167,6.61363006 C22.7443167,5.22158593 23.5965886,4.42613214 24.7784057,4.42613214 C25.9318137,4.42613214 26.6306766,5.18181324 26.6306766,6.44885749 L26.6306766,11.7954433 L28.3295386,11.7954433 L28.3295386,6.24431223 C28.3295386,4.08522338 27.1420398,2.95454264 25.3579506,2.95454264 C24.0454547,2.95454264 23.1874981,3.5624966 22.7840894,4.48863208 L22.6761349,4.48863208 L22.6761349,3.06817889 L21.0454547,3.06817889 L21.0454547,11.7954433 L22.7443167,11.7954433 L22.7443167,6.61363006 Z" id="Path"></path>
                            <path d="M33.1420432,11.9886249 C34.5852236,11.9886249 35.3977228,11.2556711 35.7215862,10.6022626 L35.7897679,10.6022626 L35.7897679,11.7954433 L37.4488572,11.7954433 L37.4488572,5.99999428 C37.4488572,3.46022397 35.4488591,2.95454264 34.0624968,2.95454264 C32.4829529,2.95454264 31.0284088,3.59090567 30.4602275,5.18181324 L32.0568169,5.54544926 C32.3068167,4.92613167 32.9431797,4.32954133 34.0852241,4.32954133 C35.1818139,4.32954133 35.7443134,4.90340441 35.7443134,5.89203984 L35.7443134,5.93181252 C35.7443134,6.55113012 35.1079504,6.53976649 33.5397701,6.7215845 C31.8863625,6.91476613 30.1931823,7.3465839 30.1931823,9.32953656 C30.1931823,11.045444 31.4829538,11.9886249 33.1420432,11.9886249 Z M33.511361,10.6249899 C32.5511346,10.6249899 31.8579535,10.1931721 31.8579535,9.35226381 C31.8579535,8.44317377 32.6647709,8.11931044 33.6477245,7.98862875 C34.1988603,7.91476518 35.5056773,7.76703805 35.7499952,7.5227201 L35.7499952,8.64771903 C35.7499952,9.68180895 34.9261324,10.6249899 33.511361,10.6249899 Z" id="Shape"></path>
                            <path d="M43.7840872,3.06817889 L41.9943161,3.06817889 L41.9943161,0.977271795 L40.2954541,0.977271795 L40.2954541,3.06817889 L39.0170462,3.06817889 L39.0170462,4.43181396 L40.2954541,4.43181396 L40.2954541,9.58521813 C40.2897723,11.1704439 41.4999984,11.9374886 42.8409062,11.9090796 C43.3806784,11.9033977 43.7443145,11.8011251 43.9431779,11.7272615 L43.63636,10.3238538 C43.5227238,10.346581 43.3124967,10.3977174 43.0397697,10.3977174 C42.4886338,10.3977174 41.9943161,10.2158993 41.9943161,9.23294574 L41.9943161,4.43181396 L43.7840872,4.43181396 L43.7840872,3.06817889 Z" id="Path"></path>
                            <path d="M49.329542,11.9715795 C51.2329493,11.9715795 52.5795389,11.0340804 52.9659022,9.6136272 L51.3579492,9.32385474 C51.0511313,10.1477176 50.3124956,10.5681717 49.3465874,10.5681717 C47.8920434,10.5681717 46.9147716,9.62499082 46.8693171,7.94317424 L53.0738566,7.94317424 L53.0738566,7.34090209 C53.0738566,4.18749601 51.1874948,2.95454264 49.2102239,2.95454264 C46.7784081,2.95454264 45.1761369,4.8068136 45.1761369,7.48862922 C45.1761369,10.1988539 46.7556808,11.9715795 49.329542,11.9715795 Z M46.8749989,6.67044818 C46.9431806,5.431813 47.8409071,4.35795039 49.2215876,4.35795039 C50.5397681,4.35795039 51.4034037,5.33522218 51.4090855,6.67044818 L46.8749989,6.67044818 Z" id="Shape"></path>
                            <path d="M69.448854,5.97726703 C69.448854,2.25567967 67.2215834,0 64.2102226,0 C61.1874982,0 58.9659094,2.25567967 58.9659094,5.97726703 C58.9659094,9.69317257 61.1874982,11.9545341 64.2102226,11.9545341 C67.2215834,11.9545341 69.448854,9.69885439 69.448854,5.97726703 Z M67.710226,5.97726703 C67.710226,8.8124916 66.210226,10.3522629 64.210226,10.3522629 C62.2045427,10.3522629 60.710226,8.8124916 60.710226,5.97726703 C60.710226,3.14204246 62.2045427,1.6022712 64.210226,1.6022712 C66.210226,1.6022712 67.710226,3.14204246 67.710226,5.97726703 Z" id="Shape"></path>
                            <path d="M73.1931803,6.61363006 C73.1931803,5.22158593 74.0454522,4.42613214 75.2272693,4.42613214 C76.3806773,4.42613214 77.0795403,5.18181324 77.0795403,6.44885749 L77.0795403,11.7954433 L78.7784023,11.7954433 L78.7784023,6.24431223 C78.7784023,4.08522338 77.5909034,2.95454264 75.8068142,2.95454264 C74.4943183,2.95454264 73.6363617,3.5624966 73.232953,4.48863208 L73.1249986,4.48863208 L73.1249986,3.06817889 L71.4943183,3.06817889 L71.4943183,11.7954433 L73.1931803,11.7954433 L73.1931803,6.61363006 Z" id="Path"></path>
                            <polygon id="Path" points="82.7499985 0.159090757 81.0511365 0.159090757 81.0511365 11.7954433 82.7499985 11.7954433"></polygon>
                            <path d="M86.1079537,15.0681674 C87.5113614,15.0681674 88.3977242,14.3352136 88.9034055,12.9602149 L92.499993,3.06817889 L90.6761311,3.06817889 L88.4659059,9.84089971 L88.3749969,9.84089971 L86.1647718,3.06817889 L84.3465917,3.06817889 L87.5397705,11.9090796 L87.3295434,12.4886245 C86.8977256,13.6477143 86.2897717,13.7443051 85.3579544,13.4886235 L84.9488638,14.8806676 C85.1534091,14.9715766 85.5965905,15.0681674 86.1079537,15.0681674 Z" id="Path"></path>
                        </g>
                        <g id="credit-card" transform="translate(0.000000, 1.000000)">
                            <path d="M0,12.4999702 C0,13.3280932 0.671873398,13.9999666 1.5,13.9999666 L16.4999607,13.9999666 C17.3280837,13.9999666 17.9999571,13.3280932 17.9999571,12.4999702 L17.9999571,6.99998331 L0,6.99998331 L0,12.4999702 Z M5.99998569,10.3749753 C5.99998569,10.168738 6.1687475,9.99997616 6.3749848,9.99997616 L10.6249747,9.99997616 C10.831212,9.99997616 10.9999738,10.168738 10.9999738,10.3749753 L10.9999738,11.6249723 C10.9999738,11.8312096 10.831212,11.9999762 10.6249747,11.9999762 L6.3749848,11.9999762 C6.1687475,11.9999762 5.99998569,11.8312096 5.99998569,11.6249723 L5.99998569,10.3749753 Z M1.99999523,10.3749753 C1.99999523,10.168738 2.16875704,9.99997616 2.37499434,9.99997616 L4.62498897,9.99997616 C4.83122627,9.99997616 4.99999523,10.168738 4.99999523,10.3749753 L4.99999523,11.6249723 C4.99999523,11.8312096 4.83122627,11.9999762 4.62498897,11.9999762 L2.37499434,11.9999762 C2.16875704,11.9999762 1.99999523,11.8312096 1.99999523,11.6249723 L1.99999523,10.3749753 Z M17.9999571,1.5 C17.9999571,0.671873398 17.3280837,0 16.4999607,0 L1.5,0 C0.671873398,0 0,0.671873398 0,1.5 L0,3 L17.9999571,3 L17.9999571,1.5 Z" id="Shape"></path>
                        </g>
                    </g>
                </g>
                <g transform="translate(21.000000, 17.000031)" id="Group-5"></g>
            </g>
        </g>
    </g>
</svg>