<?xml version="1.0" encoding="UTF-8"?>
<svg width="329px" height="50px" viewBox="0 0 329 50" version="1.1" xmlns="http://www.w3.org/2000/svg" xmlns:xlink="http://www.w3.org/1999/xlink">
    <title>Group 8 Copy 2</title>
    <g id="WhatsApp-Sharing" stroke="none" stroke-width="1" fill="none" fill-rule="evenodd">
        <g id="Group-8-Copy">
            <rect id="Rectangle" fill="#023B88" x="0" y="0" width="329" height="50" rx="5"></rect>
            <g id="Group-5" transform="translate(130.000000, 17.000033)" fill="#FFFFFF" fill-rule="nonzero">
                <g id="Group-3">
                    <g id="Share" transform="translate(24.727272, 2.204523)">
                        <path d="M6.74431175,3.35795134 L8.77271891,3.35795134 C8.73294622,1.39204413 7.05681145,0 4.57954109,0 C2.1363616,0 0.301136076,1.37499869 0.306817889,3.43181491 C0.306817889,5.10226786 1.49431676,6.06249422 3.40908766,6.55681193 L4.73295003,6.89772069 C5.98863065,7.21590221 6.81817532,7.60794729 6.82385713,8.51135552 C6.81817532,9.50567275 5.8749944,10.1704448 4.5,10.1704448 C3.18181515,10.1704448 2.15908885,9.57953632 2.07386166,8.35794657 L0,8.35794657 C0.0852271914,10.6704444 1.80681646,11.9715795 4.51704115,11.9715795 C7.30681121,11.9715795 8.92612785,10.5795354 8.93180966,8.52840096 C8.92612785,6.51135743 7.26135671,5.59090376 5.51135838,5.17613143 L4.42045033,4.90340441 C3.46590579,4.6761319 2.43181586,4.2727232 2.44317949,3.30113322 C2.4488613,2.42613405 3.23295146,1.78408921 4.55113202,1.78408921 C5.80681264,1.78408921 6.63635731,2.36931592 6.74431175,3.35795134 Z" id="Path"></path>
                        <path d="M12.772725,6.68181181 C12.772725,5.42044938 13.5568152,4.69317734 14.6590868,4.69317734 C15.7386313,4.69317734 16.3749943,5.38067669 16.3749943,6.55681193 L16.3749943,11.7954433 L18.4318105,11.7954433 L18.4318105,6.23863041 C18.4318105,4.13067788 17.2386298,2.95454264 15.4261316,2.95454264 C14.0852237,2.95454264 13.2329518,3.5624966 12.8295431,4.55113202 L12.7272705,4.55113202 L12.7272705,0.159090757 L10.7159088,0.159090757 L10.7159088,11.7954433 L12.772725,11.7954433 L12.772725,6.68181181 Z" id="Path"></path>
                        <path d="M23.0340882,11.9715795 C24.4034051,11.9715795 25.2215861,11.3295346 25.5965858,10.5965808 L25.6647675,10.5965808 L25.6647675,11.7954433 L27.6420384,11.7954433 L27.6420384,5.95454264 C27.6420384,3.64772379 25.7613583,2.95454264 24.0965872,2.95454264 C22.2613617,2.95454264 20.8522721,3.77272367 20.3977271,5.36363125 L22.3181798,5.63635826 C22.5227251,5.03976792 23.10227,4.52840477 24.1079508,4.52840477 C25.0624954,4.52840477 25.5852221,5.01704067 25.5852221,5.8749944 L25.5852221,5.90908527 C25.5852221,6.4999938 24.9659045,6.52840286 23.4261333,6.69317544 C21.7329531,6.87499344 20.1136364,7.38067478 20.1136364,9.346582 C20.1136364,11.0624894 21.3693171,11.9715795 23.0340882,11.9715795 Z M23.5681786,10.4602173 C22.7102249,10.4602173 22.0965891,10.0681722 22.0965891,9.31249112 C22.0965891,8.52271914 22.7840884,8.193174 23.7045421,8.06249231 C24.2443143,7.98862875 25.3238587,7.85226524 25.5909039,7.63635635 L25.5909039,8.66476446 C25.5909039,9.63635635 24.8068138,10.4602173 23.5681786,10.4602173 Z" id="Shape"></path>
                        <path d="M29.7159088,11.7954433 L31.772725,11.7954433 L31.772725,6.66476637 C31.772725,5.55681288 32.6079515,4.77272272 33.7386322,4.77272272 C34.0852228,4.77272272 34.5170406,4.83522266 34.6931768,4.89204079 L34.6931768,2.99999714 C34.5056769,2.96590626 34.1818136,2.94317901 33.9545411,2.94317901 C32.9545421,2.94317901 32.1193156,3.51136029 31.8011341,4.52272296 L31.7102251,4.52272296 L31.7102251,3.06817889 L29.7159088,3.06817889 L29.7159088,11.7954433 Z" id="Path"></path>
                        <path d="M39.562496,11.9658977 C41.596585,11.9658977 42.9943109,10.9715804 43.3579469,9.45454264 L41.4374942,9.23862755 C41.1590854,9.97726321 40.4772679,10.3636265 39.5909051,10.3636265 C38.2613609,10.3636265 37.3806799,9.48862731 37.3636345,7.99431056 L43.4431741,7.99431056 L43.4431741,7.36362934 C43.4431741,4.30113226 41.6022668,2.95454264 39.4545416,2.95454264 C36.9545439,2.95454264 35.3238637,4.78976816 35.3238637,7.48294741 C35.3238637,10.2215812 36.9318167,11.9658977 39.562496,11.9658977 Z M37.3693163,6.60794824 C37.4318162,5.49431294 38.2556791,4.55681384 39.4829506,4.55681384 C40.6647677,4.55681384 41.4602215,5.42044938 41.4715851,6.60794824 L37.3693163,6.60794824 Z" id="Shape"></path>
                    </g>
                    <g id="share-alt">
                        <path d="M10.9999738,9.99997616 C10.293463,9.99997616 9.64414205,10.2443298 9.13153951,10.6529287 L5.92884939,8.65125501 C5.96812542,8.47364313 5.99998569,8.18186526 5.99998569,7.99995041 C5.99998569,7.81806608 5.96812542,7.52628821 5.92884939,7.34867633 L9.13153951,5.34697212 C9.64414205,5.75563203 10.293463,5.99998569 10.9999738,5.99998569 C12.6567997,5.99998569 13.9999666,4.65681873 13.9999666,3 C13.9999666,1.34316696 12.6567997,0 10.9999738,0 C9.34314789,0 7.99998093,1.34316696 7.99998093,3 C7.99998093,3.22368616 8.02466959,3.44155063 8.07111723,3.65126693 L4.86842711,5.65294062 C4.35582458,5.24434174 3.70650361,4.99998808 3,4.99998808 C1.34316696,4.99998808 0,6.34315504 0,7.99998093 C0,9.65680681 1.34316696,10.9999738 3,10.9999738 C3.70650361,10.9999738 4.35582458,10.7556201 4.86842711,10.3470212 L8.07111723,12.3486949 C8.0318412,12.5260627 7.99998093,12.8174438 7.99998093,12.999084 L7.99998093,12.999969 C7.99998093,14.6567949 9.34314789,15.9999619 10.9999738,15.9999619 C12.6567997,15.9999619 13.9999666,14.6567949 13.9999666,12.999969 C13.9999666,11.3431431 12.6567997,9.99997616 10.9999738,9.99997616 Z" id="Path"></path>
                    </g>
                </g>
            </g>
        </g>
    </g>
</svg>